PathFileType	4	(X/Y/Z)	c:/Users/goper/Files/vsCode/490R/osim_files/C07/C07_Fast_03.trc
DataRate	CameraRate	NumFrames	NumMarkers	Units                	OrigDataRate	OrigDataStartFrame	OrigNumFrames
250.00	250.00	11	36	mm	250.0	2878	3288
                Frame#	Time	LPSIS			LASIS			LTH1			LTH2			LTH3			LTH4			LLFE			LMFE			LSH1			LSH2			LSH3			LSH4			LLMAL			LMMAL			LCAL			LMTP5			LTOE			LMTP1			RPSIS			RASIS			RTH1			RTH2			RTH3			RTH4			RLFE			RMFE			RSH1			RSH2			RSH3			RSH4			RLMAL			RMMAL			RCAL			RMTP1			RTOE			RMTP5		
		X1	Y1	Z1	X2	Y2	Z2	X3	Y3	Z3	X4	Y4	Z4	X5	Y5	Z5	X6	Y6	Z6	X7	Y7	Z7	X8	Y8	Z8	X9	Y9	Z9	X10	Y10	Z10	X11	Y11	Z11	X12	Y12	Z12	X13	Y13	Z13	X14	Y14	Z14	X15	Y15	Z15	X16	Y16	Z16	X17	Y17	Z17	X18	Y18	Z18	X19	Y19	Z19	X20	Y20	Z20	X21	Y21	Z21	X22	Y22	Z22	X23	Y23	Z23	X24	Y24	Z24	X25	Y25	Z25	X26	Y26	Z26	X27	Y27	Z27	X28	Y28	Z28	X29	Y29	Z29	X30	Y30	Z30	X31	Y31	Z31	X32	Y32	Z32	X33	Y33	Z33	X34	Y34	Z34	X35	Y35	Z35	X36	Y36	Z36

2878	11.50800	-817.27686	976.43494	791.21967	-663.54260	946.53192	686.40533	0.00000	0.00000	0.00000	-809.72137	620.91809	671.40771	0.00000	0.00000	0.00000	-798.67303	693.86481	654.30139	0.00000	0.00000	0.00000	-866.34833	506.92697	703.40253	-919.81653	326.54105	713.33429	0.00000	0.00000	0.00000	-959.76288	333.56314	703.64093	0.00000	0.00000	0.00000	-1049.53918	126.12580	775.48346	-1010.55463	146.11398	844.60559	-1115.81360	74.38992	830.06854	-945.38184	34.84413	744.10675	-884.84216	41.14580	793.23236	-911.09625	35.04129	848.34448	-803.64087	977.00958	887.71698	-634.03064	943.86310	937.58362	0.00000	0.00000	0.00000	-600.12109	724.93445	1001.36603	-570.65753	648.38031	990.87195	-544.96838	748.83148	952.02295	-506.33777	494.67834	943.91473	-532.66443	495.64960	830.16864	-486.92093	306.78583	953.51477	-439.75027	275.26276	951.52979	-432.31116	335.02954	947.04346	-414.94308	293.53372	940.65912	-386.76285	106.17711	901.42535	-371.86197	129.46104	821.39050	-408.02393	36.67522	848.06958	-221.84502	127.96050	809.30432	-205.07193	147.28729	858.63080	-229.74825	105.53733	918.52515
2879	11.51200	-811.34570	975.46814	790.89288	-657.65118	945.63477	686.18335	0.00000	0.00000	0.00000	-804.57208	620.47729	671.13525	0.00000	0.00000	0.00000	-793.21021	693.35455	654.06592	0.00000	0.00000	0.00000	-861.57788	506.63507	703.07727	-916.61615	326.50681	713.16827	0.00000	0.00000	0.00000	-956.30481	334.04279	703.18298	0.00000	0.00000	0.00000	-1048.28076	127.46803	774.84619	-1009.24445	147.26306	844.09241	-1115.23193	76.59859	829.62903	-945.09552	34.91090	743.95898	-884.70038	41.12143	793.10535	-910.97357	35.10422	848.25226	-797.64984	976.14838	887.40015	-628.05975	943.37006	937.32825	0.00000	0.00000	0.00000	-594.17493	724.87811	1000.93201	-564.24872	648.44897	990.80145	-538.85089	749.09497	951.69592	-500.13449	494.11197	943.46808	-525.59595	495.86237	829.68756	-481.89957	305.86774	952.32404	-434.92542	274.00671	950.52753	-427.10046	333.86908	946.40863	-410.32587	291.99887	940.10492	-382.44537	104.74536	900.37146	-367.38416	128.41136	820.60107	-403.66702	35.57944	846.47931	-217.76981	127.08088	808.62317	-200.88506	146.18044	857.92792	-225.37866	103.34246	917.40784
2880	11.51600	-805.37000	974.54218	790.62604	-651.67297	944.87280	685.88904	0.00000	0.00000	0.00000	-799.31128	620.03296	670.84442	0.00000	0.00000	0.00000	-787.88104	692.91553	653.90564	0.00000	0.00000	0.00000	-856.66541	506.29855	702.76135	-912.88739	326.77545	712.71216	0.00000	0.00000	0.00000	-952.66522	334.57877	702.67725	0.00000	0.00000	0.00000	-1046.84924	129.01268	774.17133	-1007.82867	148.35414	843.56317	-1114.47485	78.75498	829.06317	-945.65155	34.70612	744.42358	-884.57831	41.09350	793.04474	-910.86511	35.20214	848.16455	-791.75024	975.45770	887.06091	-622.05829	942.98047	937.19836	0.00000	0.00000	0.00000	-587.76672	724.95923	1000.73273	-557.64673	648.55011	990.79852	-532.62085	749.26276	951.35272	-493.90060	493.66205	942.96960	-518.19775	496.30637	829.15887	-477.08676	304.95111	951.07043	-430.36557	272.80215	949.41730	-422.04773	332.62943	945.81433	-405.02301	291.02057	939.61346	-378.64587	103.22413	899.33624	-363.30118	127.22528	819.63281	-400.13696	34.38387	844.99536	-213.87038	126.00264	807.90546	-197.00821	144.25264	857.51544	-221.64050	100.82761	916.51208
2881	11.52000	-799.36298	973.71674	790.35608	-645.61127	944.02850	685.68256	0.00000	0.00000	0.00000	-793.95264	619.51685	670.56232	0.00000	0.00000	0.00000	-782.51062	692.43555	653.72302	0.00000	0.00000	0.00000	-851.57776	506.01080	702.42712	-909.53571	326.90393	712.38965	0.00000	0.00000	0.00000	-948.99487	335.13004	702.17255	0.00000	0.00000	0.00000	-1045.49109	130.56734	773.53088	-1006.27631	149.60463	843.07178	-1114.14099	81.10850	828.28174	-945.37769	34.79057	744.30164	-884.45752	41.06620	792.96887	-910.78485	35.26136	848.11951	-785.89136	974.59955	886.67944	-615.94427	942.53668	937.15552	0.00000	0.00000	0.00000	-581.53125	724.82898	1000.29626	-550.89459	648.60065	990.70001	-526.33655	749.41595	951.11499	-487.56400	493.09601	942.40814	-510.61325	496.79984	828.52185	-472.15753	304.04520	949.90448	-425.77066	271.60806	948.43854	-416.89838	331.22992	945.09314	-400.71796	289.54626	938.86688	-375.30792	101.67600	898.28070	-359.70706	125.76559	818.66937	-397.22940	33.17364	843.86060	-210.56850	123.92934	807.40448	-193.51331	141.79776	857.06830	-218.38118	98.17113	915.85022
2882	11.52400	-793.30304	972.80634	790.09760	-639.51599	943.19379	685.42603	0.00000	0.00000	0.00000	-788.55280	619.03705	670.32166	0.00000	0.00000	0.00000	-776.96960	691.87073	653.51587	0.00000	0.00000	0.00000	-846.42218	505.75568	702.03589	-905.88574	327.08328	711.99493	0.00000	0.00000	0.00000	-945.32068	335.70599	701.66644	0.00000	0.00000	0.00000	-1044.13062	132.13571	772.87769	-1004.63141	150.74049	842.52106	-1113.33350	83.60159	827.83862	-945.18964	34.93924	744.16644	-884.34338	41.06640	792.90881	-910.69855	35.32521	848.06531	-780.69904	974.20056	886.62152	-609.86224	942.22546	937.08569	0.00000	0.00000	0.00000	-575.05920	724.87347	1000.19958	-544.23712	648.72760	990.67487	-519.93079	749.54395	950.79590	-481.22980	492.57574	941.82715	-502.96329	497.33972	827.89465	-467.54828	303.20743	948.68884	-421.33456	270.33298	947.42023	-411.82114	329.89789	944.27887	-396.09186	288.07635	938.05524	-372.63785	99.99878	897.10266	-356.46790	124.33590	817.64001	-394.72461	31.97225	842.42810	-207.35606	121.43488	806.89752	-190.29546	138.94785	856.72864	-215.58104	95.07782	915.02032
2883	11.52800	-787.15948	972.08112	789.82056	-633.41376	942.36554	685.16644	0.00000	0.00000	0.00000	-783.09460	618.62567	669.96234	0.00000	0.00000	0.00000	-771.41150	691.44153	653.37134	0.00000	0.00000	0.00000	-841.22174	505.50180	701.70087	-902.07770	327.28149	711.56738	0.00000	0.00000	0.00000	-941.55743	336.27939	701.11523	0.00000	0.00000	0.00000	-1042.62842	133.75693	772.24219	-1003.02386	151.99744	841.92560	-1112.29285	86.06522	827.30420	-944.98999	35.03132	744.06342	-884.22015	41.03972	792.84454	-910.60010	35.37794	847.96332	-774.61157	973.49603	886.29065	-603.63275	941.89398	937.09729	0.00000	0.00000	0.00000	-568.52637	724.73895	999.92987	-537.63251	648.59198	990.38513	-513.28302	749.68268	950.58057	-474.86618	492.02768	941.17413	-495.25995	497.79279	827.22083	-462.73196	302.41605	947.64099	-417.05539	268.96310	946.38403	-406.85556	328.48236	943.29852	-391.56729	286.51321	937.25543	-370.08081	98.26189	896.12567	-353.49173	122.64088	816.62598	-392.69199	30.52116	841.14923	-204.60960	118.33955	806.49982	-187.51665	135.62013	856.28906	-213.46057	91.97678	914.53638
2884	11.53200	-780.91187	971.27332	789.57861	-627.16626	941.69965	684.80292	0.00000	0.00000	0.00000	-777.61469	618.23871	669.62537	0.00000	0.00000	0.00000	-765.49963	691.08105	653.12238	0.00000	0.00000	0.00000	-835.82379	505.23328	701.27356	-898.32208	327.53519	711.00031	0.00000	0.00000	0.00000	-937.59277	336.91501	700.60980	0.00000	0.00000	0.00000	-1040.97913	135.50085	771.51709	-1001.23389	153.33685	841.32458	-1111.17163	88.71679	826.79590	-944.76697	35.16626	743.92432	-884.10132	41.00998	792.75305	-910.54767	35.39388	847.90906	-768.26331	972.74237	886.02234	-597.40045	941.57465	937.12354	0.00000	0.00000	0.00000	-562.10504	724.38019	999.48657	-530.70880	648.41406	989.90649	-506.45065	749.70782	950.39441	-468.51489	491.52383	940.50244	-487.58066	498.26773	826.55078	-458.21533	301.60031	946.46460	-412.78372	267.55627	945.30066	-401.84818	327.03485	942.29907	-387.15686	284.93878	936.23279	-368.08691	96.91152	894.97479	-350.72327	121.05759	815.51147	-391.73044	30.08894	840.38422	-202.04929	114.72366	805.93506	-185.02771	131.94185	855.87903	-212.07368	88.56419	915.38379
2885	11.53600	-774.55249	970.60010	789.36304	-620.94592	940.92084	684.54266	0.00000	0.00000	0.00000	-771.85999	617.86115	669.31915	0.00000	0.00000	0.00000	-759.72540	690.70483	652.84869	0.00000	0.00000	0.00000	-830.36383	504.96338	700.90924	-894.52234	327.67911	710.60931	0.00000	0.00000	0.00000	-933.62946	337.62738	700.06366	0.00000	0.00000	0.00000	-1039.28040	137.31853	770.76746	-999.13867	154.65645	840.68677	-1110.02307	91.47458	826.28815	-944.56006	35.25112	743.82483	-883.98132	40.96151	792.68219	-910.47308	35.43491	847.84564	-761.96167	972.18213	885.76172	-590.98041	941.24609	937.15942	0.00000	0.00000	0.00000	-555.35925	724.14642	999.23163	-524.09387	648.02905	989.24829	-499.50433	749.67682	950.57397	-462.04855	490.95523	939.62317	-479.99426	498.71680	825.91351	-453.59021	300.81256	945.44305	-408.67892	266.24258	944.16785	-397.07928	325.48383	941.16321	-382.80951	283.34140	935.07770	-366.29584	95.61439	893.77777	-348.10880	119.71009	814.48981	-391.28067	29.77768	839.89429	-200.30875	110.20755	805.47351	-182.98680	127.85140	855.54144	-210.43613	85.09478	914.67010
2886	11.54000	-768.14014	969.90985	789.25653	-614.65198	940.22583	684.19965	0.00000	0.00000	0.00000	-766.08344	617.46753	668.98889	0.00000	0.00000	0.00000	-753.91345	690.26501	652.64368	0.00000	0.00000	0.00000	-824.81519	504.69943	700.45844	-890.71857	327.92770	710.75818	0.00000	0.00000	0.00000	-929.53168	338.33099	699.46008	0.00000	0.00000	0.00000	-1037.40320	139.18500	770.05676	-997.07184	156.05424	840.03040	-1108.70642	94.41197	825.81018	-944.29401	35.37461	743.69855	-883.82825	40.96226	792.56537	-910.35583	35.45832	847.72748	-754.36713	971.06268	885.39056	-584.50787	941.04944	937.14948	0.00000	0.00000	0.00000	-548.76294	723.64532	998.66797	-517.36609	647.70062	988.61060	-492.39157	749.67963	950.82794	-455.59256	490.48175	938.67682	-472.61603	499.09543	825.38086	-449.14413	300.03363	944.35822	-404.58942	264.91092	943.01868	-392.31854	323.97913	939.96344	-378.49924	281.66824	933.82196	-364.81735	94.24604	892.56580	-345.97980	118.13228	813.47144	-391.12125	29.86315	839.25403	-198.20210	105.47395	804.90881	-180.65602	123.22559	854.74274	-209.22844	81.66283	913.88953
2887	11.54400	-761.62830	969.30231	789.05396	-608.23645	939.57404	683.89227	0.00000	0.00000	0.00000	-760.28748	617.07660	668.63110	0.00000	0.00000	0.00000	-747.97662	689.87036	652.41821	0.00000	0.00000	0.00000	-819.13092	504.41412	700.02283	-886.45166	328.37253	709.45728	0.00000	0.00000	0.00000	-925.37720	339.09683	698.81763	0.00000	0.00000	0.00000	-1035.44360	141.07089	769.27301	-994.84442	157.46887	839.27087	-1106.93286	97.33386	825.38031	-943.94006	35.50935	743.52783	-883.65607	40.96014	792.42322	-910.17029	35.55540	847.60907	-747.80798	970.66412	885.12445	-577.79620	940.84399	937.22400	0.00000	0.00000	0.00000	-542.09558	723.23969	998.27734	-510.82767	647.23743	987.52008	-485.18594	749.61963	951.23682	-449.14343	490.01093	937.71948	-465.64450	499.26566	825.10907	-444.88541	299.28989	943.22223	-400.66202	263.57312	941.74707	-387.60709	322.51730	938.62103	-374.51981	279.98264	932.54053	-363.45117	92.99897	891.36688	-344.20255	116.44431	812.41162	-390.84274	29.86903	838.62634	-195.94202	100.64307	804.43268	-178.88814	118.48034	854.04163	-208.12251	78.26183	913.31512
2888	11.54800	-754.97119	968.69604	789.01556	-601.87170	938.95038	683.64471	0.00000	0.00000	0.00000	-754.22742	616.68817	668.26501	0.00000	0.00000	0.00000	-742.16559	689.54108	652.26404	0.00000	0.00000	0.00000	-813.23987	504.13107	699.55621	-882.39575	328.71606	708.88898	0.00000	0.00000	0.00000	-921.15118	339.95819	698.20074	0.00000	0.00000	0.00000	-1033.44861	143.08411	768.55487	-992.56738	158.97037	838.58209	-1105.37439	100.45242	824.76331	-943.47076	35.66727	743.31439	-883.47455	40.97143	792.30194	-909.98468	35.70811	847.44452	-741.25031	970.04114	884.97919	-571.14557	940.69733	937.17218	0.00000	0.00000	0.00000	-535.76697	722.23102	998.07629	-504.25168	646.80615	986.48444	-477.96713	749.55182	951.66840	-442.80878	489.53897	936.71600	-458.47418	499.62891	824.42639	-440.52667	298.55029	942.11041	-396.90027	262.28394	940.47070	-383.12857	321.00949	937.23273	-370.52673	278.37125	931.08221	-361.99615	91.80447	890.11871	-342.25955	114.80648	811.48138	-390.33047	30.09798	837.88898	-193.66942	95.83253	803.86700	-175.79791	113.53629	853.26190	-206.87926	75.01688	912.96753
